<svg xmlns="http://www.w3.org/2000/svg" version="1.1" xmlns:xlink="http://www.w3.org/1999/xlink" width="512" height="512" x="0" y="0" viewBox="0 0 512 512" style="enable-background:new 0 0 512 512" xml:space="preserve" class=""><g><path d="M128 32V0H16C7.163 0 0 7.163 0 16v112h32V54.56L180.64 203.2l22.56-22.56L54.56 32H128zM496 0H384v32h73.44L308.8 180.64l22.56 22.56L480 54.56V128h32V16c0-8.837-7.163-16-16-16zM480 457.44 331.36 308.8l-22.56 22.56L457.44 480H384v32h112c8.837 0 16-7.163 16-16V384h-32v73.44zM180.64 308.64 32 457.44V384H0v112c0 8.837 7.163 16 16 16h112v-32H54.56L203.2 331.36l-22.56-22.72z" fill="#000000" opacity="1" data-original="#000000" class=""></path></g></svg>