<svg
                      xmlns="http://www.w3.org/2000/svg"
                      width="20"
                      height="34"
                      viewBox="0 0 20 34"
                      fill="none"
                    >
                      <g clip-path="url(#clip0_538_17980)">
                        <path
                          d="M7.6626 3.53707H12.3416C12.8021 3.52415 13.2394 3.33216 13.5605 3.0019C13.8816 2.67164 14.0613 2.22916 14.0613 1.76851C14.0613 1.30787 13.8816 0.865389 13.5605 0.53513C13.2394 0.204871 12.8021 0.0128776 12.3416 -3.69191e-05H7.6626C7.42618 -0.00666784 7.19082 0.0341719 6.97046 0.120068C6.75009 0.205963 6.54918 0.335171 6.37961 0.500052C6.21004 0.664933 6.07525 0.862139 5.98321 1.08001C5.89117 1.29788 5.84375 1.532 5.84375 1.76851C5.84375 2.00503 5.89117 2.23915 5.98321 2.45702C6.07525 2.67489 6.21004 2.8721 6.37961 3.03698C6.54918 3.20186 6.75009 3.33107 6.97046 3.41696C7.19082 3.50286 7.42618 3.5437 7.6626 3.53707Z"
                          fill="#4D4D4D"
                        />
                        <path
                          d="M5.11169 16.915C4.99554 16.9153 4.88209 16.9501 4.78568 17.0148C4.68928 17.0796 4.61427 17.1716 4.57014 17.279C4.52601 17.3864 4.51475 17.5046 4.53778 17.6184C4.56081 17.7322 4.6171 17.8367 4.69952 17.9185C4.78194 18.0004 4.88679 18.0559 5.0008 18.0781C5.1148 18.1004 5.23284 18.0883 5.33996 18.0434C5.44708 17.9985 5.53848 17.9228 5.60258 17.8259C5.66668 17.7291 5.7006 17.6154 5.70005 17.4992C5.69987 17.4222 5.6845 17.346 5.65481 17.2749C5.62513 17.2039 5.58172 17.1393 5.52706 17.0851C5.47241 17.0308 5.40759 16.9879 5.33632 16.9587C5.26504 16.9295 5.18871 16.9147 5.11169 16.915Z"
                          fill="#4D4D4D"
                        />
                        <path
                          d="M6.75159 23.8237H6.21191V24.7306H6.86982V25.3565H6.21191V26.1911H6.75159C7.51242 26.1911 7.792 25.8461 7.792 25.0032C7.792 24.1603 7.51103 23.8237 6.75159 23.8237Z"
                          fill="#4D4D4D"
                        />
                        <path
                          d="M8.26487 9.60837C8.26487 9.25647 8.05902 9.052 7.62783 9.052H6.93237V10.1647H7.62783C8.05902 10.1633 8.26487 9.95332 8.26487 9.60837Z"
                          fill="#4D4D4D"
                        />
                        <path
                          d="M10.8213 23.7693C10.2107 23.7693 9.84766 24.2492 9.84766 25.01C9.84766 25.7708 10.2093 26.2618 10.8213 26.2618C11.4333 26.2618 11.7949 25.775 11.7949 25.01C11.7949 24.245 11.4305 23.7693 10.8213 23.7693Z"
                          fill="#4D4D4D"
                        />
                        <path
                          d="M16.9608 4.60669H3.05167C2.65142 4.60596 2.25494 4.68412 1.88491 4.8367C1.51488 4.98928 1.17855 5.21329 0.895135 5.49593C0.611724 5.77856 0.386794 6.11428 0.233201 6.48389C0.0796085 6.85351 0.000364862 7.24977 0 7.65002L0 27.6917C0.000711793 28.437 0.274831 29.156 0.770391 29.7126C1.26595 30.2692 1.9485 30.6246 2.68864 30.7114V30.7392C2.70541 31.5122 3.02425 32.2479 3.57686 32.7886C4.12946 33.3294 4.87188 33.6322 5.64504 33.6322C6.4182 33.6322 7.16062 33.3294 7.71322 32.7886C8.26583 32.2479 8.58467 31.5122 8.60143 30.7392H11.5126C11.5294 31.5122 11.8482 32.2479 12.4008 32.7886C12.9534 33.3294 13.6959 33.6322 14.469 33.6322C15.2422 33.6322 15.9846 33.3294 16.5372 32.7886C17.0898 32.2479 17.4086 31.5122 17.4254 30.7392V30.6989C18.1427 30.59 18.7971 30.2272 19.2696 29.6767C19.742 29.1261 20.0012 28.4242 20 27.6987V7.65002C20.0004 6.84349 19.6804 6.06983 19.1105 5.49913C18.5406 4.92844 17.7674 4.60743 16.9608 4.60669ZM11.2817 8.2968C12.3666 8.2968 13.0899 9.07849 13.0899 10.2343C13.0899 11.3902 12.3722 12.1816 11.2817 12.1816C10.1913 12.1816 9.47354 11.3944 9.47354 10.2343C9.47354 9.07432 10.1968 8.2968 11.2817 8.2968ZM11.7143 12.9216C11.7174 13.0077 11.6946 13.0928 11.649 13.1659C11.6033 13.2391 11.5369 13.2969 11.4581 13.332C11.3794 13.3671 11.292 13.3779 11.2071 13.3629C11.1222 13.348 11.0437 13.3081 10.9817 13.2482C10.9196 13.1884 10.8769 13.1114 10.8589 13.0271C10.841 12.9428 10.8486 12.855 10.8808 12.7751C10.9131 12.6951 10.9685 12.6267 11.0399 12.5784C11.1113 12.5302 11.1955 12.5044 11.2817 12.5043C11.394 12.5039 11.5019 12.5473 11.5827 12.6252C11.6635 12.7031 11.7107 12.8094 11.7143 12.9216ZM6.12699 8.34548H7.65005C8.61534 8.34548 9.08965 8.83091 9.08965 9.60843C9.08965 10.1648 8.84763 10.5682 8.33438 10.7573L9.12859 12.1232H8.33438L7.61666 10.8714H6.93651V12.1232H6.12699V8.34548ZM2.72759 9.04094V8.34548H5.7278V9.04094H4.63176V12.1232H3.82224V9.04094H2.72759ZM6.83219 26.8989H5.40232V25.3564H5.04486V24.7305H5.40232V23.1212H6.83219C8.00334 23.1212 8.62369 23.7847 8.62369 25.0101C8.62369 26.2355 8.00334 26.8989 6.83219 26.8989ZM10.8213 26.9532C9.73642 26.9532 9.01315 26.1659 9.01315 25.0059C9.01315 23.8459 9.73086 23.0683 10.8213 23.0683C10.972 23.0679 11.1222 23.0842 11.2692 23.117C11.6406 23.117 11.7658 22.9557 11.7811 22.5607H12.3694C12.3583 22.971 12.2401 23.2464 11.8951 23.3952C12.3527 23.7304 12.6226 24.2965 12.6226 25.0031C12.6226 26.1659 11.9049 26.9532 10.8213 26.9532ZM10.0063 22.0265H10.7295L11.1176 22.7498H10.5988L10.0063 22.0265ZM13.9133 26.8948H13.1038V23.1212H13.9092L13.9133 26.8948ZM13.7743 20.2183C13.2927 20.2186 12.8198 20.0905 12.4042 19.8473C11.9886 19.604 11.6453 19.2544 11.4097 18.8344H5.1464C4.97102 18.8351 4.79724 18.8011 4.63507 18.7343C4.4729 18.6676 4.32556 18.5694 4.20155 18.4453C4.07754 18.3213 3.97932 18.174 3.91254 18.0118C3.84577 17.8497 3.81177 17.6759 3.81251 17.5005V17.4908C3.81434 17.1382 3.95569 16.8007 4.20564 16.552C4.4556 16.3034 4.79383 16.1638 5.1464 16.1638H11.4055C11.6448 15.7411 11.9931 15.3903 12.4142 15.148C12.8352 14.9057 13.3136 14.7808 13.7993 14.7863C14.2851 14.7919 14.7604 14.9276 15.1758 15.1795C15.5913 15.4313 15.9315 15.79 16.1611 16.2181C16.1354 16.2101 16.1086 16.2068 16.0818 16.2083H14.4655C14.3405 16.2083 14.2205 16.2577 14.1316 16.3458C14.0428 16.4338 13.9923 16.5534 13.9912 16.6785V18.2891C13.9912 18.4151 14.0412 18.5359 14.1301 18.625C14.219 18.7142 14.3396 18.7645 14.4655 18.7648H16.0776C16.1089 18.7639 16.1401 18.7602 16.1708 18.7537C15.9433 19.1943 15.599 19.5638 15.1756 19.8219C14.7522 20.08 14.2659 20.2166 13.7701 20.217L13.7743 20.2183ZM16.7619 12.1246H15.8871L14.3988 9.6905H14.3821V12.1246H13.5656V8.34548H14.4002L15.9218 10.8269H15.9385V8.34548H16.748L16.7619 12.1246Z"
                          fill="#4D4D4D"
                        />
                        <path
                          d="M13.7743 20.2183C13.2927 20.2186 12.8198 20.0905 12.4042 19.8473C11.9886 19.604 11.6453 19.2544 11.4097 18.8344H5.1464C4.97102 18.8351 4.79724 18.8011 4.63507 18.7343C4.4729 18.6676 4.32556 18.5694 4.20155 18.4453C4.07754 18.3213 3.97932 18.174 3.91254 18.0118C3.84577 17.8497 3.81177 17.6759 3.81251 17.5005V17.4908C3.81434 17.1382 3.95569 16.8007 4.20564 16.552C4.4556 16.3034 4.79383 16.1638 5.1464 16.1638H11.4055C11.6448 15.7411 11.9931 15.3903 12.4142 15.148C12.8352 14.9057 13.3136 14.7808 13.7993 14.7863C14.2851 14.7919 14.7604 14.9276 15.1758 15.1795C15.5913 15.4313 15.9315 15.79 16.1611 16.2181C16.1354 16.2101 16.1086 16.2068 16.0818 16.2083H14.4655C14.3405 16.2083 14.2205 16.2577 14.1316 16.3458C14.0428 16.4338 13.9923 16.5534 13.9912 16.6785V18.2891C13.9912 18.4151 14.0412 18.5359 14.1301 18.625C14.219 18.7142 14.3396 18.7645 14.4655 18.7648H16.0776C16.1089 18.7639 16.1401 18.7602 16.1708 18.7537C15.9433 19.1943 15.599 19.5638 15.1756 19.8219C14.7522 20.08 14.2659 20.2166 13.7701 20.217L13.7743 20.2183Z"
                          fill="white"
                        />
                        <path
                          d="M11.2817 11.4807C11.8924 11.4807 12.2554 10.9953 12.2554 10.2289C12.2554 9.46251 11.8938 8.98682 11.2817 8.98682C10.6697 8.98682 10.3081 9.46807 10.3081 10.2289C10.3081 10.9897 10.6725 11.4807 11.2817 11.4807Z"
                          fill="#4D4D4D"
                        />
                      </g>
                      <defs>
                        <clipPath id="clip0_538_17980">
                          <rect width="20" height="33.688" fill="white" />
                        </clipPath>
                      </defs>
                    </svg>