<svg
                      xmlns="http://www.w3.org/2000/svg"
                      width="25"
                      height="25"
                      viewBox="0 0 25 25"
                      fill="none"
                    >
                      <g clip-path="url(#clip0_538_18218)">
                        <path
                          d="M22.6808 19.7345H14.1335L9.02581 14.6268C8.82002 14.4063 8.57118 14.2304 8.29467 14.11C8.01817 13.9896 7.7199 13.9272 7.41832 13.9268H2.31065C1.74665 13.962 1.21728 14.2109 0.830353 14.6227C0.443423 15.0346 0.228027 15.5784 0.228027 16.1435C0.228027 16.7086 0.443423 17.2525 0.830353 17.6643C1.21728 18.0762 1.74665 18.3251 2.31065 18.3603H6.49358L11.679 23.5458C11.8959 23.7594 12.1543 23.9264 12.4382 24.0364C12.7221 24.1464 13.0255 24.1971 13.3297 24.1853H22.6808C22.9836 24.2042 23.287 24.1609 23.5724 24.0581C23.8578 23.9552 24.119 23.795 24.3401 23.5873C24.5612 23.3796 24.7374 23.1288 24.8578 22.8504C24.9783 22.572 25.0404 22.2719 25.0404 21.9685C25.0404 21.6652 24.9783 21.3651 24.8578 21.0866C24.7374 20.8082 24.5612 20.5575 24.3401 20.3498C24.119 20.1421 23.8578 19.9818 23.5724 19.879C23.287 19.7761 22.9836 19.7328 22.6808 19.7517V19.7345Z"
                          fill="#4D4D4D"
                        />
                        <path
                          d="M17.0026 16.8565H21.3238C22.0115 16.8565 22.671 16.5833 23.1572 16.0971C23.6434 15.6109 23.9166 14.9514 23.9166 14.2638V2.76069C23.9166 2.07306 23.6434 1.41359 23.1572 0.92736C22.671 0.44113 22.0115 0.167969 21.3238 0.167969L17.0026 0.167969C16.315 0.167969 15.6555 0.44113 15.1693 0.92736C14.6831 1.41359 14.4099 2.07306 14.4099 2.76069V14.2897C14.4167 14.9728 14.6929 15.6256 15.1784 16.1063C15.6639 16.5869 16.3195 16.8565 17.0026 16.8565ZM19.0336 9.0783C17.9792 8.72396 17.2533 8.21406 17.2533 7.26339C17.2768 6.82135 17.4595 6.40277 17.7677 6.08503C18.076 5.76729 18.4888 5.57187 18.9299 5.53491V4.5756H19.8978V5.43984C20.396 5.45213 20.8867 5.56378 21.3411 5.76826L21.0473 6.89177C20.6041 6.67145 20.1162 6.55612 19.6213 6.55472C18.9731 6.55472 18.757 6.83127 18.757 7.10783C18.757 7.38439 19.1114 7.6523 19.9756 7.94615C21.1596 8.36098 21.635 8.90545 21.635 9.79562C21.62 10.2593 21.436 10.7015 21.1176 11.039C20.7993 11.3765 20.3685 11.5859 19.9065 11.6278V12.6476H18.878V11.7315C18.2917 11.7109 17.7167 11.5635 17.1928 11.2994L17.4866 10.1413C17.9887 10.4016 18.5458 10.5379 19.1114 10.5389C19.6731 10.5389 20.0621 10.3228 20.0621 9.92526C20.0621 9.52771 19.7682 9.34622 19.0336 9.09559V9.0783Z"
                          fill="#4D4D4D"
                        />
                        <path
                          d="M0.642582 8.62034C0.608692 8.35494 0.632791 8.08535 0.713213 7.83016C0.793635 7.57498 0.928467 7.34029 1.1084 7.14227C1.28834 6.94426 1.5091 6.78765 1.75544 6.68324C2.00178 6.57883 2.26785 6.52911 2.53527 6.53752C2.74648 6.50969 2.96118 6.52629 3.1656 6.58625C3.37002 6.64621 3.55967 6.7482 3.72239 6.8857C3.88511 7.0232 4.01732 7.19317 4.11054 7.38473C4.20377 7.57628 4.25595 7.7852 4.26376 7.99809H3.39951C3.36453 7.79517 3.25825 7.61141 3.0998 7.4799C2.94136 7.34839 2.74116 7.27777 2.53527 7.28077C1.86116 7.28077 1.53275 7.8166 1.53275 8.62034C1.53275 9.42409 1.82659 9.95992 2.53527 9.95992C2.74116 9.96291 2.94136 9.89229 3.0998 9.76078C3.25825 9.62927 3.36453 9.44551 3.39951 9.2426H4.26376C4.25713 9.45623 4.20581 9.6661 4.1131 9.85869C4.02039 10.0513 3.88835 10.2223 3.7255 10.3607C3.56264 10.4991 3.37259 10.6019 3.16758 10.6624C2.96258 10.7228 2.74718 10.7397 2.53527 10.7118C2.26744 10.7189 2.00123 10.668 1.7549 10.5626C1.50858 10.4572 1.28796 10.2998 1.10818 10.1011C0.928401 9.90247 0.793711 9.66728 0.713345 9.41168C0.632979 9.15609 0.60884 8.88614 0.642582 8.62034Z"
                          fill="#4D4D4D"
                        />
                        <path
                          d="M4.63532 8.62018C4.61091 8.35228 4.64337 8.08225 4.73056 7.82776C4.81776 7.57327 4.95773 7.34008 5.14131 7.14344C5.32489 6.94681 5.54794 6.79117 5.79584 6.68673C6.04375 6.58228 6.31092 6.53138 6.57987 6.53736C6.84848 6.53124 7.11533 6.58212 7.36285 6.68665C7.61036 6.79117 7.83291 6.94697 8.01583 7.14377C8.19875 7.34057 8.33788 7.5739 8.42405 7.82839C8.51023 8.08287 8.54148 8.35273 8.51577 8.62018C8.54138 8.88803 8.51011 9.15826 8.42401 9.41318C8.33791 9.6681 8.19892 9.90195 8.01614 10.0994C7.83337 10.2969 7.61094 10.4535 7.36342 10.559C7.1159 10.6645 6.84889 10.7165 6.57987 10.7116C6.31051 10.7164 6.04318 10.6643 5.79527 10.5589C5.54735 10.4535 5.32442 10.297 5.14099 10.0997C4.95755 9.90245 4.81772 9.66873 4.7306 9.41381C4.64347 9.15889 4.61101 8.88848 4.63532 8.62018ZM7.6256 8.62018C7.6256 7.79915 7.23669 7.28061 6.57987 7.28061C5.92304 7.28061 5.53413 7.79915 5.53413 8.62018C5.53413 9.44121 5.92304 9.95976 6.57987 9.95976C7.23669 9.95976 7.6256 9.44121 7.6256 8.62018Z"
                          fill="#4D4D4D"
                        />
                        <path
                          d="M10.5728 6.58933C10.8416 6.56249 11.1131 6.59751 11.3663 6.69169C11.6196 6.78587 11.8479 6.93673 12.0339 7.13273C12.2199 7.32872 12.3586 7.56466 12.4394 7.82249C12.5202 8.08032 12.5409 8.35321 12.5 8.62029C12.5409 8.88738 12.5202 9.16027 12.4394 9.4181C12.3586 9.67593 12.2199 9.91187 12.0339 10.1079C11.8479 10.3039 11.6196 10.4547 11.3663 10.5489C11.1131 10.6431 10.8416 10.6781 10.5728 10.6513H9.03442V6.58933H10.5728ZM10.4691 9.89937C11.3333 9.89937 11.5926 9.52775 11.5926 8.62029C11.5926 7.71284 11.3333 7.34122 10.4691 7.34122H9.89002V9.93394L10.4691 9.89937Z"
                          fill="#4D4D4D"
                        />
                      </g>
                      <defs>
                        <clipPath id="clip0_538_18218">
                          <rect
                            width="24.8037"
                            height="24"
                            fill="white"
                            transform="translate(0.0981445 0.167969)"
                          />
                        </clipPath>
                      </defs>
                    </svg>