<svg
                      xmlns="http://www.w3.org/2000/svg"
                      width="27"
                      height="25"
                      viewBox="0 0 27 25"
                      fill="none"
                    >
                      <g clip-path="url(#clip0_538_18003)">
                        <path
                          d="M7.5287 13.1851H8.70479C8.69244 13.2763 8.70115 13.3692 8.73027 13.4565C8.75939 13.5438 8.80814 13.6233 8.87277 13.6889C8.9374 13.7544 9.0162 13.8043 9.10311 13.8347C9.19001 13.865 9.28272 13.875 9.37412 13.864C9.69922 13.864 9.98607 13.7301 9.98607 13.3859C9.98607 13.0417 9.76615 12.8887 9.30718 12.8887H8.98208V12.009H9.24981C9.4328 12.0334 9.61809 11.9854 9.76615 11.8751C9.84143 11.7912 9.88239 11.6819 9.88089 11.5692C9.88284 11.5067 9.87116 11.4445 9.84666 11.387C9.82215 11.3295 9.78542 11.2781 9.73901 11.2362C9.6926 11.1944 9.63762 11.1631 9.57791 11.1446C9.5182 11.1262 9.45518 11.121 9.39324 11.1293C9.31658 11.1259 9.2401 11.1393 9.16916 11.1686C9.09823 11.1978 9.03456 11.2423 8.98262 11.2988C8.93069 11.3553 8.89174 11.4224 8.86853 11.4956C8.84531 11.5687 8.83838 11.646 8.84822 11.7221H7.67212C7.65159 11.4939 7.68259 11.264 7.76283 11.0493C7.84307 10.8347 7.97051 10.6408 8.13572 10.482C8.30094 10.3232 8.49971 10.2036 8.71737 10.1319C8.93503 10.0603 9.166 10.0384 9.39324 10.068C10.4068 10.068 11.0665 10.5652 11.0665 11.3397C11.0905 11.5747 11.0265 11.8103 10.887 12.001C10.7475 12.1917 10.5424 12.3239 10.3112 12.3723C10.5809 12.3944 10.8314 12.5204 11.0099 12.7238C11.1883 12.9273 11.2807 13.1921 11.2673 13.4624C11.2673 14.2943 10.5407 14.9158 9.35499 14.9158C9.11451 14.9557 8.86805 14.9393 8.63495 14.868C8.40185 14.7966 8.18846 14.6722 8.01152 14.5045C7.83458 14.3369 7.6989 14.1305 7.61512 13.9015C7.53135 13.6726 7.50177 13.4274 7.5287 13.1851Z"
                          fill="#4D4D4D"
                        />
                        <path
                          d="M11.6404 12.4395C11.6404 10.9287 12.3001 10.0681 13.5527 10.0681C13.7599 10.041 13.9705 10.0583 14.1705 10.1188C14.3705 10.1793 14.5554 10.2817 14.7127 10.4192C14.8701 10.5567 14.9964 10.7261 15.0833 10.9161C15.1701 11.1062 15.2155 11.3126 15.2165 11.5215H14.1551C14.1493 11.4506 14.129 11.3815 14.0957 11.3186C14.0624 11.2557 14.0166 11.2002 13.9611 11.1555C13.9057 11.1108 13.8418 11.0778 13.7732 11.0585C13.7047 11.0393 13.6329 11.0341 13.5623 11.0434C13.4361 11.0318 13.3093 11.0584 13.1985 11.1198C13.0876 11.1812 12.9978 11.2745 12.9408 11.3877C12.8301 11.6134 12.7775 11.8632 12.7878 12.1144C13.043 11.8636 13.3862 11.7229 13.744 11.7223C13.9552 11.7066 14.1673 11.7366 14.3658 11.8104C14.5644 11.8841 14.7447 11.9998 14.8944 12.1496C15.0442 12.2993 15.1599 12.4796 15.2336 12.6782C15.3073 12.8767 15.3374 13.0888 15.3217 13.3C15.3264 13.5302 15.2813 13.7588 15.1895 13.97C15.0977 14.1811 14.9612 14.3699 14.7896 14.5234C14.6179 14.6769 14.4151 14.7915 14.195 14.8592C13.9749 14.927 13.7428 14.9463 13.5145 14.9159C12.5296 14.9159 11.6404 14.2466 11.6404 12.4395ZM13.9543 13.7781C14.0271 13.719 14.0837 13.6423 14.1188 13.5554C14.1539 13.4684 14.1664 13.374 14.1551 13.2809C14.1655 13.1883 14.1516 13.0947 14.1147 13.0091C14.0778 12.9236 14.0192 12.8492 13.9448 12.7932C13.8175 12.7075 13.6679 12.6609 13.5145 12.6594C13.3672 12.6624 13.2242 12.709 13.1033 12.7932C13.032 12.8515 12.9763 12.9265 12.9413 13.0117C12.9062 13.0968 12.8929 13.1893 12.9025 13.2809C12.8903 13.374 12.9024 13.4688 12.9376 13.5559C12.9727 13.643 13.0298 13.7196 13.1033 13.7781C13.2271 13.8636 13.3736 13.9102 13.524 13.912C13.677 13.9073 13.8257 13.861 13.9543 13.7781Z"
                          fill="#4D4D4D"
                        />
                        <path
                          d="M19.5098 13.1948C19.5216 13.4364 19.4802 13.6778 19.3886 13.9017C19.297 14.1256 19.1573 14.3268 18.9795 14.4909C18.8018 14.655 18.5901 14.7781 18.3596 14.8515C18.129 14.925 17.8852 14.9469 17.6452 14.9159C17.4154 14.9479 17.1814 14.9295 16.9594 14.8619C16.7374 14.7943 16.5329 14.6791 16.3599 14.5244C16.187 14.3697 16.0499 14.1791 15.9581 13.966C15.8663 13.7529 15.8221 13.5223 15.8285 13.2904H16.9568C16.9493 13.3836 16.9656 13.4772 17.0041 13.5625C17.0425 13.6477 17.1019 13.7219 17.1767 13.778C17.3053 13.8609 17.454 13.9072 17.607 13.9119C17.7691 13.9092 17.9263 13.8557 18.0564 13.7589C18.1364 13.6904 18.1976 13.6027 18.2344 13.504C18.2712 13.4053 18.2823 13.2989 18.2667 13.1948C18.2667 12.9079 18.1998 12.7071 18.0564 12.6211C17.9249 12.5379 17.7721 12.4947 17.6165 12.4968C17.4883 12.4867 17.3601 12.5173 17.2503 12.5843C17.1404 12.6512 17.0544 12.7511 17.0046 12.8697H15.8763L16.2779 10.135H19.0412V11.0912H17.1289L17.0333 11.8179C17.1641 11.7056 17.3162 11.6207 17.4804 11.5681C17.6446 11.5156 17.8177 11.4965 17.9894 11.5119C18.2031 11.5122 18.4143 11.5572 18.6095 11.644C18.8047 11.7309 18.9796 11.8577 19.1228 12.0162C19.266 12.1747 19.3744 12.3615 19.4411 12.5645C19.5077 12.7675 19.5311 12.9822 19.5098 13.1948Z"
                          fill="#4D4D4D"
                        />
                        <path
                          d="M25.9352 6.31991L24.6252 9.80995L24.4723 10.2307L24.3671 10.4984C24.2031 10.8249 23.9491 11.0976 23.6351 11.2842C23.321 11.4708 22.96 11.5636 22.5949 11.5515C22.2298 11.5395 21.8757 11.4231 21.5747 11.2161C21.2737 11.0091 21.0382 10.7203 20.8962 10.3837C20.8776 10.2915 20.8488 10.2017 20.8101 10.1159C20.6363 9.54002 20.399 8.98522 20.1025 8.46174C19.169 6.90274 17.7464 5.69595 16.056 5.02908C14.3657 4.36221 12.5023 4.27265 10.7558 4.77431C9.00924 5.27598 7.47745 6.34075 6.39865 7.80303C5.31986 9.2653 4.75454 11.0431 4.79062 12.8599C4.8267 14.6767 5.46216 16.4306 6.59816 17.8489C7.73416 19.2672 9.30702 20.2703 11.0721 20.7022C12.8372 21.1342 14.6955 20.9707 16.358 20.2372C18.0206 19.5038 19.3942 18.2414 20.2651 16.6466C20.3416 16.5127 20.4085 16.3693 20.4754 16.2259C20.736 15.8658 21.1139 15.6076 21.5441 15.4959C21.9744 15.3842 22.4301 15.4258 22.833 15.6137C23.2358 15.8015 23.5607 16.1239 23.7517 16.5253C23.9426 16.9267 23.9878 17.382 23.8794 17.8131C23.7743 18.0235 23.6786 18.2339 23.5543 18.4442C22.2993 20.7618 20.3162 22.6018 17.9112 23.6799C15.5062 24.7581 12.8132 25.0145 10.2479 24.4096C7.68268 23.8047 5.38795 22.3721 3.71808 20.3329C2.04822 18.2938 1.09611 15.7617 1.00879 13.1276C0.921468 10.4934 1.70379 7.90376 3.23495 5.75855C4.76611 3.61333 6.96093 2.03187 9.48048 1.25839C12 0.484899 14.7041 0.56241 17.1752 1.47895C19.6463 2.39549 21.747 4.10007 23.1527 6.32947L23.497 5.3733C23.5566 5.2132 23.6472 5.06642 23.7636 4.94133C23.8799 4.81625 24.0198 4.7153 24.1752 4.64427C24.3306 4.57324 24.4984 4.53351 24.6692 4.52735C24.8399 4.52119 25.0102 4.54871 25.1703 4.60836C25.3304 4.668 25.4771 4.75859 25.6022 4.87496C25.7273 4.99134 25.8283 5.1312 25.8993 5.28659C25.9703 5.44197 26.0101 5.60982 26.0162 5.78055C26.0224 5.95129 25.9949 6.12157 25.9352 6.28166V6.31991Z"
                          fill="#4D4D4D"
                        />
                      </g>
                      <defs>
                        <clipPath id="clip0_538_18003">
                          <rect
                            width="25.0422"
                            height="24"
                            fill="white"
                            transform="translate(0.979004 0.687988)"
                          />
                        </clipPath>
                      </defs>
                    </svg>