 <svg
                      xmlns="http://www.w3.org/2000/svg"
                      width="21"
                      height="37"
                      viewBox="0 0 21 37"
                      fill="none"
                    >
                      <g clip-path="url(#clip0_538_18134)">
                        <path
                          d="M7.26634 5.42799H13.7336C14.3819 5.42799 15.0037 5.17829 15.4622 4.73383C15.9206 4.28937 16.1781 3.68655 16.1781 3.05799C16.1781 2.42943 15.9206 1.82661 15.4622 1.38215C15.0037 0.937684 14.3819 0.687988 13.7336 0.687988L7.26634 0.687988C6.618 0.687988 5.99622 0.937684 5.53777 1.38215C5.07933 1.82661 4.82178 2.42943 4.82178 3.05799C4.82178 3.68655 5.07933 4.28937 5.53777 4.73383C5.99622 5.17829 6.618 5.42799 7.26634 5.42799Z"
                          fill="#4D4D4D"
                        />
                        <path
                          d="M3.59435 33.3081C3.47769 33.3185 3.36031 33.3185 3.24365 33.3081C3.28819 34.0387 3.61893 34.7252 4.16824 35.2272C4.71754 35.7292 5.4439 36.0088 6.19878 36.0088C6.95367 36.0088 7.68003 35.7292 8.22933 35.2272C8.77864 34.7252 9.10938 34.0387 9.15392 33.3081H3.59435Z"
                          fill="#4D4D4D"
                        />
                        <path
                          d="M13.9089 33.3081H12.011C12.0555 34.0387 12.3863 34.7252 12.9356 35.2272C13.4849 35.7292 14.2112 36.0088 14.9661 36.0088C15.721 36.0088 16.4474 35.7292 16.9967 35.2272C17.546 34.7252 17.8767 34.0387 17.9212 33.3081C17.7669 33.3228 17.6114 33.3228 17.4571 33.3081H13.9089Z"
                          fill="#4D4D4D"
                        />
                        <path
                          d="M17.4571 7.97803H3.59432C2.78261 7.99115 2.00873 8.313 1.43953 8.87419C0.870326 9.43538 0.551401 10.191 0.551514 10.978V30.358C0.552142 31.0793 0.827143 31.775 1.32387 32.3119C1.82059 32.8488 2.50413 33.1893 3.24362 33.268C3.28816 32.5374 3.6189 31.851 4.16821 31.349C4.71751 30.847 5.44387 30.5674 6.19875 30.5674C6.95364 30.5674 7.68 30.847 8.2293 31.349C8.77861 31.851 9.10935 32.5374 9.15389 33.268H12.0626C12.1071 32.5374 12.4379 31.851 12.9872 31.349C13.5365 30.847 14.2629 30.5674 15.0177 30.5674C15.7726 30.5674 16.499 30.847 17.0483 31.349C17.5976 31.851 17.9283 32.5374 17.9729 33.268C18.6891 33.1629 19.3429 32.8127 19.8159 32.2808C20.2889 31.7488 20.5498 31.0703 20.5515 30.368V10.928C20.538 10.1411 20.206 9.3908 19.6272 8.83896C19.0483 8.28712 18.269 7.97792 17.4571 7.97803ZM14.2184 11.798C14.4181 11.798 14.6096 11.8749 14.7508 12.0118C14.892 12.1487 14.9713 12.3344 14.9713 12.528C14.9686 12.7199 14.8881 12.903 14.7472 13.0378C14.6062 13.1725 14.4163 13.248 14.2184 13.248C14.0214 13.248 13.8325 13.1722 13.6932 13.0371C13.5539 12.9021 13.4757 12.719 13.4757 12.528C13.4757 12.3361 13.5536 12.152 13.6926 12.0153C13.8316 11.8787 14.0204 11.8007 14.2184 11.798ZM14.9404 14.688V17.568C14.9377 17.7599 14.8571 17.943 14.7162 18.0778C14.5753 18.2125 14.3853 18.288 14.1874 18.288C13.9904 18.288 13.8015 18.2122 13.6623 18.0771C13.523 17.9421 13.4448 17.759 13.4448 17.568V14.688C13.4447 14.4961 13.5227 14.312 13.6616 14.1753C13.8006 14.0387 13.9895 13.9607 14.1874 13.958C14.3871 13.958 14.5786 14.0349 14.7198 14.1718C14.861 14.3087 14.9404 14.4944 14.9404 14.688ZM14.1874 19.008C14.2863 19.008 14.3842 19.0269 14.4756 19.0636C14.5669 19.1003 14.6499 19.1541 14.7198 19.2218C14.7898 19.2896 14.8452 19.3701 14.8831 19.4587C14.9209 19.5472 14.9404 19.6422 14.9404 19.738C14.9377 19.9299 14.8571 20.113 14.7162 20.2478C14.5753 20.3825 14.3853 20.458 14.1874 20.458C13.9904 20.458 13.8015 20.3822 13.6623 20.2471C13.523 20.1121 13.4448 19.929 13.4448 19.738C13.4447 19.6405 13.4649 19.5439 13.504 19.454C13.5431 19.3641 13.6004 19.2827 13.6725 19.2146C13.7447 19.1466 13.8301 19.0932 13.9239 19.0577C14.0176 19.0223 14.1178 19.0054 14.2184 19.008H14.1874ZM9.03011 11.798H11.9904C12.096 11.786 12.203 11.7958 12.3044 11.8267C12.4058 11.8576 12.4993 11.909 12.5787 11.9775C12.6582 12.046 12.7218 12.13 12.7653 12.224C12.8088 12.3181 12.8313 12.42 12.8313 12.523C12.8313 12.6261 12.8088 12.728 12.7653 12.822C12.7218 12.916 12.6582 13.0001 12.5787 13.0685C12.4993 13.137 12.4058 13.1884 12.3044 13.2194C12.203 13.2503 12.096 13.2601 11.9904 13.248H9.0198C8.91422 13.2601 8.80721 13.2503 8.7058 13.2194C8.6044 13.1884 8.5109 13.137 8.43146 13.0685C8.35202 13.0001 8.28844 12.916 8.2449 12.822C8.20136 12.728 8.17885 12.6261 8.17885 12.523C8.17885 12.42 8.20136 12.3181 8.2449 12.224C8.28844 12.13 8.35202 12.046 8.43146 11.9775C8.5109 11.909 8.6044 11.8576 8.7058 11.8267C8.80721 11.7958 8.91422 11.786 9.0198 11.798H9.03011ZM8.27715 14.798C8.27715 14.5859 8.36408 14.3824 8.51883 14.2323C8.67358 14.0823 8.88347 13.998 9.10231 13.998H11.9182C12.0266 13.998 12.1339 14.0187 12.234 14.0589C12.3341 14.0991 12.4251 14.1581 12.5017 14.2323C12.5783 14.3066 12.6391 14.3948 12.6806 14.4919C12.722 14.5889 12.7434 14.693 12.7434 14.798V17.528C12.7434 17.6331 12.722 17.7371 12.6806 17.8342C12.6391 17.9312 12.5783 18.0194 12.5017 18.0937C12.4251 18.168 12.3341 18.2269 12.234 18.2671C12.1339 18.3073 12.0266 18.328 11.9182 18.328H9.092C8.87315 18.328 8.66327 18.2437 8.50852 18.0937C8.35377 17.9437 8.26683 17.7402 8.26683 17.528L8.27715 14.798ZM9.03011 19.048H11.9904C12.1874 19.048 12.3763 19.1239 12.5155 19.2589C12.6548 19.3939 12.7331 19.5771 12.7331 19.768C12.7331 19.959 12.6548 20.1421 12.5155 20.2771C12.3763 20.4122 12.1874 20.488 11.9904 20.488H9.0198C8.82283 20.488 8.63394 20.4122 8.49466 20.2771C8.35539 20.1421 8.27715 19.959 8.27715 19.768C8.27715 19.5771 8.35539 19.3939 8.49466 19.2589C8.63394 19.1239 8.82283 19.048 9.0198 19.048H9.03011ZM6.78153 11.798C6.97944 11.8007 7.16832 11.8787 7.3073 12.0153C7.44629 12.152 7.5242 12.3361 7.52418 12.528C7.52418 12.719 7.44594 12.9021 7.30666 13.0371C7.16739 13.1722 6.97849 13.248 6.78153 13.248C6.5836 13.248 6.39363 13.1725 6.25272 13.0378C6.1118 12.903 6.03128 12.7199 6.02856 12.528C6.02856 12.3344 6.10789 12.1487 6.2491 12.0118C6.39031 11.8749 6.58183 11.798 6.78153 11.798ZM7.52418 14.688V17.568C7.5242 17.7599 7.44629 17.9441 7.3073 18.0807C7.16832 18.2173 6.97944 18.2954 6.78153 18.298C6.58183 18.298 6.39031 18.2211 6.2491 18.0842C6.10789 17.9473 6.02856 17.7616 6.02856 17.568V14.688C6.03128 14.4962 6.1118 14.313 6.25272 14.1783C6.39363 14.0435 6.5836 13.968 6.78153 13.968C6.97849 13.968 7.16739 14.0439 7.30666 14.1789C7.44594 14.3139 7.52418 14.4971 7.52418 14.688ZM6.78153 19.018C6.97849 19.018 7.16739 19.0939 7.30666 19.2289C7.44594 19.3639 7.52418 19.5471 7.52418 19.738C7.5242 19.9299 7.44629 20.1141 7.3073 20.2507C7.16832 20.3873 6.97944 20.4654 6.78153 20.468C6.58183 20.468 6.39031 20.3911 6.2491 20.2542C6.10789 20.1173 6.02856 19.9316 6.02856 19.738C6.03128 19.5462 6.1118 19.363 6.25272 19.2283C6.39363 19.0935 6.5836 19.018 6.78153 19.018ZM17.2096 23.238L14.1152 26.238L13.4551 26.868L10.3607 29.868C10.237 29.9887 10.09 30.0844 9.92801 30.1497C9.76604 30.2151 9.59234 30.2487 9.41691 30.2487C9.24148 30.2487 9.06778 30.2151 8.90581 30.1497C8.74383 30.0844 8.59678 29.9887 8.47312 29.868L4.68767 26.238C4.56373 26.1179 4.46541 25.9752 4.39834 25.8182C4.33126 25.6612 4.29674 25.493 4.29674 25.323C4.29674 25.1531 4.33126 24.9848 4.39834 24.8278C4.46541 24.6708 4.56373 24.5282 4.68767 24.408C4.81161 24.2879 4.95874 24.1926 5.12068 24.1275C5.28261 24.0625 5.45617 24.029 5.63145 24.029C5.80673 24.029 5.98029 24.0625 6.14222 24.1275C6.30416 24.1926 6.4513 24.2879 6.57524 24.408L9.40144 27.148L11.5572 25.048L12.2173 24.418L15.3117 21.418C15.4354 21.2974 15.5824 21.2017 15.7444 21.1363C15.9064 21.071 16.0801 21.0374 16.2555 21.0374C16.4309 21.0374 16.6046 21.071 16.7666 21.1363C16.9286 21.2017 17.0756 21.2974 17.1993 21.418C17.4463 21.6597 17.5858 21.9857 17.5877 22.326C17.5897 22.6663 17.4539 22.9937 17.2096 23.238Z"
                          fill="#4D4D4D"
                        />
                        <path
                          d="M17.2096 23.238L14.1152 26.238L13.4551 26.868L10.3607 29.868C10.237 29.9887 10.09 30.0844 9.92801 30.1497C9.76604 30.2151 9.59234 30.2487 9.41691 30.2487C9.24148 30.2487 9.06778 30.2151 8.90581 30.1497C8.74383 30.0844 8.59678 29.9887 8.47312 29.868L4.68767 26.238C4.56373 26.1179 4.46541 25.9752 4.39834 25.8182C4.33126 25.6612 4.29674 25.493 4.29674 25.323C4.29674 25.1531 4.33126 24.9848 4.39834 24.8278C4.46541 24.6708 4.56373 24.5282 4.68767 24.408C4.81161 24.2879 4.95874 24.1926 5.12068 24.1275C5.28261 24.0625 5.45617 24.029 5.63145 24.029C5.80673 24.029 5.98029 24.0625 6.14222 24.1275C6.30416 24.1926 6.4513 24.2879 6.57524 24.408L9.40144 27.148L11.5572 25.048L12.2173 24.418L15.3117 21.418C15.4354 21.2974 15.5824 21.2017 15.7444 21.1363C15.9064 21.071 16.0801 21.0374 16.2555 21.0374C16.4309 21.0374 16.6046 21.071 16.7666 21.1363C16.9286 21.2017 17.0756 21.2974 17.1993 21.418C17.4463 21.6597 17.5858 21.9857 17.5877 22.326C17.5897 22.6663 17.4539 22.9937 17.2096 23.238Z"
                          fill="white"
                        />
                        <path
                          d="M14.9404 14.688V17.568C14.9377 17.7599 14.8571 17.943 14.7162 18.0778C14.5753 18.2125 14.3853 18.288 14.1874 18.288C13.9904 18.288 13.8015 18.2122 13.6623 18.0771C13.523 17.9421 13.4448 17.759 13.4448 17.568V14.688C13.4447 14.4961 13.5227 14.312 13.6616 14.1753C13.8006 14.0387 13.9895 13.9607 14.1874 13.958C14.3871 13.958 14.5786 14.0349 14.7198 14.1718C14.861 14.3087 14.9404 14.4944 14.9404 14.688Z"
                          fill="white"
                        />
                        <path
                          d="M14.2184 11.798C14.4181 11.798 14.6096 11.8749 14.7508 12.0118C14.892 12.1487 14.9713 12.3344 14.9713 12.528C14.9686 12.7199 14.8881 12.903 14.7472 13.0378C14.6062 13.1725 14.4163 13.248 14.2184 13.248C14.0214 13.248 13.8325 13.1722 13.6932 13.0371C13.5539 12.9021 13.4757 12.719 13.4757 12.528C13.4757 12.3361 13.5536 12.152 13.6926 12.0153C13.8316 11.8787 14.0204 11.8007 14.2184 11.798Z"
                          fill="white"
                        />
                        <path
                          d="M9.03011 11.798H11.9904C12.096 11.786 12.203 11.7958 12.3044 11.8267C12.4058 11.8576 12.4993 11.909 12.5787 11.9775C12.6582 12.046 12.7218 12.13 12.7653 12.224C12.8088 12.3181 12.8313 12.42 12.8313 12.523C12.8313 12.6261 12.8088 12.728 12.7653 12.822C12.7218 12.916 12.6582 13.0001 12.5787 13.0685C12.4993 13.137 12.4058 13.1884 12.3044 13.2194C12.203 13.2503 12.096 13.2601 11.9904 13.248H9.0198C8.91422 13.2601 8.80721 13.2503 8.7058 13.2194C8.6044 13.1884 8.5109 13.137 8.43146 13.0685C8.35202 13.0001 8.28844 12.916 8.2449 12.822C8.20136 12.728 8.17885 12.6261 8.17885 12.523C8.17885 12.42 8.20136 12.3181 8.2449 12.224C8.28844 12.13 8.35202 12.046 8.43146 11.9775C8.5109 11.909 8.6044 11.8576 8.7058 11.8267C8.80721 11.7958 8.91422 11.786 9.0198 11.798H9.03011Z"
                          fill="white"
                        />
                        <path
                          d="M6.78153 11.798C6.97944 11.8007 7.16832 11.8787 7.3073 12.0153C7.44629 12.152 7.5242 12.3361 7.52418 12.528C7.52418 12.719 7.44594 12.9021 7.30666 13.0371C7.16739 13.1722 6.97849 13.248 6.78153 13.248C6.5836 13.248 6.39363 13.1725 6.25272 13.0378C6.1118 12.903 6.03128 12.7199 6.02856 12.528C6.02856 12.3344 6.10789 12.1487 6.2491 12.0118C6.39031 11.8749 6.58183 11.798 6.78153 11.798Z"
                          fill="white"
                        />
                        <path
                          d="M7.52418 14.688V17.568C7.5242 17.7599 7.44629 17.9441 7.3073 18.0807C7.16832 18.2173 6.97944 18.2954 6.78153 18.298C6.58183 18.298 6.39031 18.2211 6.2491 18.0842C6.10789 17.9473 6.02856 17.7616 6.02856 17.568V14.688C6.03128 14.4962 6.1118 14.313 6.25272 14.1783C6.39363 14.0435 6.5836 13.968 6.78153 13.968C6.97849 13.968 7.16739 14.0439 7.30666 14.1789C7.44594 14.3139 7.52418 14.4971 7.52418 14.688Z"
                          fill="white"
                        />
                        <path
                          d="M8.27715 14.798C8.27715 14.5859 8.36408 14.3824 8.51883 14.2323C8.67358 14.0823 8.88347 13.998 9.10231 13.998H11.9182C12.0266 13.998 12.1339 14.0187 12.234 14.0589C12.3341 14.0991 12.4251 14.1581 12.5017 14.2323C12.5783 14.3066 12.6391 14.3948 12.6806 14.4919C12.722 14.5889 12.7434 14.693 12.7434 14.798V17.528C12.7434 17.6331 12.722 17.7371 12.6806 17.8342C12.6391 17.9312 12.5783 18.0194 12.5017 18.0937C12.4251 18.168 12.3341 18.2269 12.234 18.2671C12.1339 18.3073 12.0266 18.328 11.9182 18.328H9.092C8.87315 18.328 8.66327 18.2437 8.50852 18.0937C8.35377 17.9437 8.26683 17.7402 8.26683 17.528L8.27715 14.798Z"
                          fill="white"
                        />
                        <path
                          d="M6.78153 19.018C6.97849 19.018 7.16739 19.0939 7.30666 19.2289C7.44594 19.3639 7.52418 19.5471 7.52418 19.738C7.5242 19.9299 7.44629 20.1141 7.3073 20.2507C7.16832 20.3873 6.97944 20.4654 6.78153 20.468C6.58183 20.468 6.39031 20.3911 6.2491 20.2542C6.10789 20.1173 6.02856 19.9316 6.02856 19.738C6.03128 19.5462 6.1118 19.363 6.25272 19.2283C6.39363 19.0935 6.5836 19.018 6.78153 19.018Z"
                          fill="white"
                        />
                        <path
                          d="M9.03011 19.048H11.9904C12.1874 19.048 12.3763 19.1239 12.5155 19.2589C12.6548 19.3939 12.7331 19.5771 12.7331 19.768C12.7331 19.959 12.6548 20.1421 12.5155 20.2771C12.3763 20.4122 12.1874 20.488 11.9904 20.488H9.0198C8.82283 20.488 8.63394 20.4122 8.49466 20.2771C8.35539 20.1421 8.27715 19.959 8.27715 19.768C8.27715 19.5771 8.35539 19.3939 8.49466 19.2589C8.63394 19.1239 8.82283 19.048 9.0198 19.048H9.03011Z"
                          fill="white"
                        />
                        <path
                          d="M14.1874 19.008C14.2863 19.008 14.3842 19.0269 14.4756 19.0636C14.5669 19.1003 14.6499 19.1541 14.7198 19.2218C14.7898 19.2896 14.8452 19.3701 14.8831 19.4587C14.9209 19.5472 14.9404 19.6422 14.9404 19.738C14.9377 19.9299 14.8571 20.113 14.7162 20.2478C14.5753 20.3825 14.3853 20.458 14.1874 20.458C13.9904 20.458 13.8015 20.3822 13.6623 20.2471C13.523 20.1121 13.4448 19.929 13.4448 19.738C13.4447 19.6405 13.4649 19.5439 13.504 19.454C13.5431 19.3641 13.6004 19.2827 13.6725 19.2146C13.7447 19.1466 13.8301 19.0932 13.9239 19.0577C14.0176 19.0223 14.1178 19.0054 14.2184 19.008H14.1874Z"
                          fill="white"
                        />
                        <path
                          d="M6.14211 30.438C5.36588 30.4405 4.62173 30.7386 4.06997 31.2679C3.5182 31.7972 3.20295 32.5155 3.19214 33.268C3.30879 33.2784 3.42618 33.2784 3.54284 33.268H9.1024C9.09156 32.5138 8.77489 31.794 8.2209 31.2644C7.66691 30.7348 6.92013 30.4379 6.14211 30.438Z"
                          fill="#4D4D4D"
                        />
                        <path
                          d="M14.9405 30.438C14.5514 30.4367 14.1658 30.51 13.8061 30.6538C13.4463 30.7975 13.1194 31.0089 12.8443 31.2757C12.5691 31.5424 12.3511 31.8593 12.2028 32.2081C12.0545 32.5569 11.9789 32.9307 11.9802 33.308H17.4263C17.5807 33.3227 17.7362 33.3227 17.8905 33.308C17.8905 32.5486 17.58 31.8201 17.0271 31.2821C16.4742 30.7442 15.7239 30.4407 14.9405 30.438Z"
                          fill="#4D4D4D"
                        />
                      </g>
                      <defs>
                        <clipPath id="clip0_538_18134">
                          <rect
                            width="20"
                            height="35.48"
                            fill="white"
                            transform="translate(0.5 0.687988)"
                          />
                        </clipPath>
                      </defs>
                    </svg>