<svg
                      xmlns="http://www.w3.org/2000/svg"
                      width="26"
                      height="25"
                      viewBox="0 0 26 25"
                      fill="none"
                    >
                      <g clip-path="url(#clip0_538_18013)">
                        <path
                          d="M14.8217 15.2755C14.2582 15.6666 13.5948 15.8888 12.9094 15.9161V16.7671H12.1731V15.9161C10.4903 15.7918 9.43848 14.8834 9.43848 13.2484H11.4464C11.4401 13.4668 11.5087 13.6808 11.6409 13.8548C11.7732 14.0287 11.961 14.1522 12.1731 14.2045V12.8276L11.762 12.7416C11.2006 12.6578 10.6704 12.4305 10.2225 12.0818C10.0157 11.8914 9.85484 11.6564 9.75214 11.3947C9.64944 11.133 9.60758 10.8514 9.62971 10.5711C9.62971 9.17506 10.6433 8.4388 12.1731 8.35275V7.49219H12.9094V8.37187C14.4393 8.49617 15.405 9.32804 15.405 10.7814H13.4066C13.4345 10.6155 13.3959 10.4452 13.2993 10.3075C13.2027 10.1697 13.0558 10.0755 12.8903 10.0452V11.3647H13.1293C14.946 11.6994 15.5676 12.3878 15.5676 13.5352C15.5951 13.8642 15.5415 14.1948 15.4115 14.4983C15.2814 14.8017 15.0789 15.0685 14.8217 15.2755ZM12.1445 11.2117V10.0356C11.9984 10.0607 11.8662 10.1371 11.7715 10.251C11.6768 10.365 11.626 10.509 11.6281 10.6571C11.6256 10.7282 11.6372 10.7991 11.6624 10.8657C11.6875 10.9323 11.7257 10.9931 11.7747 11.0448C11.8237 11.0964 11.8824 11.1378 11.9475 11.1664C12.0127 11.1951 12.0829 11.2105 12.154 11.2117H12.1445ZM12.9094 14.2523C13.0827 14.2449 13.2461 14.1695 13.3642 14.0424C13.4823 13.9153 13.5457 13.7469 13.5405 13.5735C13.5405 13.2484 13.3779 13.0667 12.9094 12.9711V14.2523Z"
                          fill="#4D4D4D"
                        />
                        <path
                          d="M25.4352 5.79989L24.1252 9.28993L23.9723 9.71065L23.8671 9.97838C23.7031 10.3049 23.4491 10.5775 23.1351 10.7642C22.821 10.9508 22.46 11.0436 22.0949 11.0315C21.7298 11.0194 21.3757 10.903 21.0747 10.6961C20.7737 10.4891 20.5382 10.2002 20.3962 9.86364C20.3776 9.77145 20.3488 9.68164 20.3101 9.59591C20.1363 9.02 19.899 8.4652 19.6025 7.94172C18.669 6.38272 17.2464 5.17593 15.556 4.50906C13.8657 3.84219 12.0023 3.75263 10.2558 4.25429C8.50924 4.75596 6.97745 5.82073 5.89865 7.28301C4.81986 8.74528 4.25454 10.5231 4.29062 12.3399C4.3267 14.1567 4.96216 15.9106 6.09816 17.3289C7.23416 18.7472 8.80702 19.7503 10.5721 20.1822C12.3372 20.6141 14.1955 20.4507 15.858 19.7172C17.5206 18.9837 18.8942 17.7214 19.7651 16.1266C19.8416 15.9927 19.9085 15.8493 19.9754 15.7059C20.236 15.3457 20.6139 15.0876 21.0441 14.9759C21.4744 14.8642 21.9301 14.9058 22.333 15.0937C22.7358 15.2815 23.0607 15.6038 23.2517 16.0052C23.4426 16.4066 23.4878 16.862 23.3794 17.2931C23.2743 17.5035 23.1786 17.7138 23.0543 17.9242C21.7993 20.2418 19.8162 22.0818 17.4112 23.1599C15.0062 24.2381 12.3132 24.4945 9.74792 23.8896C7.18268 23.2847 4.88795 21.852 3.21808 19.8129C1.54822 17.7738 0.596108 15.2417 0.508788 12.6075C0.421468 9.97338 1.20379 7.38374 2.73495 5.23853C4.26611 3.09331 6.46093 1.51185 8.98048 0.738367C11.5 -0.0351204 14.2041 0.0423906 16.6752 0.95893C19.1463 1.87547 21.247 3.58005 22.6527 5.80945L22.997 4.85328C23.0566 4.69318 23.1472 4.5464 23.2636 4.42131C23.3799 4.29623 23.5198 4.19529 23.6752 4.12425C23.8306 4.05322 23.9984 4.01349 24.1692 4.00733C24.3399 4.00117 24.5102 4.02869 24.6703 4.08834C24.8304 4.14798 24.9771 4.23857 25.1022 4.35495C25.2273 4.47132 25.3283 4.61119 25.3993 4.76657C25.4703 4.92195 25.5101 5.0898 25.5162 5.26053C25.5224 5.43127 25.4949 5.60155 25.4352 5.76164V5.79989Z"
                          fill="#4D4D4D"
                        />
                      </g>
                      <defs>
                        <clipPath id="clip0_538_18013">
                          <rect
                            width="25.0422"
                            height="24"
                            fill="white"
                            transform="translate(0.479004 0.167969)"
                          />
                        </clipPath>
                      </defs>
                    </svg>