<svg
                      xmlns="http://www.w3.org/2000/svg"
                      width="23"
                      height="25"
                      viewBox="0 0 23 25"
                      fill="none"
                    >
                      <path
                        d="M21.5593 4.67753H21.4424C18.038 4.65059 14.7627 3.37116 12.2414 1.08337L12.0078 0.849751C11.8601 0.746612 11.6848 0.690262 11.5046 0.688014C11.3183 0.686599 11.1362 0.743119 10.9835 0.849751C10.9102 0.932065 10.8321 1.01007 10.7498 1.08337C9.50086 2.2964 6.60757 4.43492 1.52184 4.66854H1.44097C1.21694 4.68878 1.00866 4.79232 0.857266 4.95868C0.705873 5.12505 0.622386 5.34214 0.623298 5.56708V5.71983C0.677211 9.87108 1.56676 24.688 11.5046 24.688C21.4424 24.688 22.2871 9.87108 22.3769 5.71983V5.60302C22.371 5.3773 22.2858 5.16085 22.1363 4.99163C21.9868 4.82241 21.7825 4.71122 21.5593 4.67753ZM18.7109 8.10096C18.7109 10.8505 18.0819 20.6805 11.5226 20.6805C4.96324 20.6805 4.33426 10.8595 4.33426 8.10096V8.01111C4.3388 7.86001 4.3961 7.71527 4.49623 7.60201C4.59635 7.48876 4.73297 7.41414 4.88237 7.39112H4.95426C7.19484 7.36277 9.34692 6.51217 11.0014 5.001L11.1632 4.84825C11.262 4.77571 11.382 4.73781 11.5046 4.74043C11.6242 4.73912 11.741 4.77699 11.8371 4.84825L11.9898 5.001C13.6622 6.51686 15.8338 7.36441 18.0909 7.38213H18.1628C18.3129 7.40346 18.4506 7.47758 18.551 7.5912C18.6514 7.70482 18.7081 7.8505 18.7109 8.00212V8.10096Z"
                        fill="#4D4D4D"
                      />
                      <path
                        d="M3.53464 0.687988C3.53012 0.735804 3.53012 0.783939 3.53464 0.831755C3.53068 0.801934 3.53068 0.771721 3.53464 0.741901C3.53044 0.724176 3.53044 0.705713 3.53464 0.687988V0.687988Z"
                        fill="#4D4D4D"
                      />
                      <path
                        d="M16.2396 10.8682L15.7364 11.4972L12.1422 15.9898C11.9519 16.1706 11.6994 16.2714 11.4369 16.2714C11.1744 16.2714 10.9219 16.1706 10.7315 15.9898L7.49679 13.0516C7.33423 12.8603 7.24982 12.6147 7.26041 12.3638C7.271 12.113 7.3758 11.8753 7.5539 11.6984C7.73201 11.5214 7.9703 11.4181 8.22121 11.4091C8.47212 11.4002 8.7172 11.4861 8.9075 11.6499L11.3246 13.8423L14.8199 9.5024C14.9117 9.41003 15.0209 9.33673 15.1412 9.28671C15.2615 9.23669 15.3905 9.21094 15.5207 9.21094C15.651 9.21094 15.78 9.23669 15.9003 9.28671C16.0205 9.33673 16.1298 9.41003 16.2216 9.5024C16.3958 9.68606 16.4944 9.92864 16.4978 10.1818C16.5011 10.4349 16.4089 10.68 16.2396 10.8682Z"
                        fill="#4D4D4D"
                      />
                    </svg>