<svg xmlns="http://www.w3.org/2000/svg" xmlns:xlink="http://www.w3.org/1999/xlink" version="1.1" id="Layer_1" x="0px" y="0px" viewBox="0 0 36 36" style="enable-background:new 0 0 36 36;" xml:space="preserve">
<style type="text/css">
	.st0{fill:#1074a5;}
</style>
<g>
	<path class="st0" d="M35.7,34.1L32.6,31c-0.1-0.1-0.1-0.1-0.2-0.1c1-1.2,1.7-2.8,1.7-4.5c0-3.8-3.1-6.9-6.9-6.9c0,0,0,0,0,0   c-3.8,0-6.9,3.1-6.8,6.9c0,3.8,3.1,6.9,6.9,6.8c1.3,0,2.6-0.4,3.6-1.1c0.1,0.1,0.1,0.2,0.2,0.3l3.1,3.1c0.4,0.4,1.1,0.4,1.6,0   C36.1,35.2,36.1,34.5,35.7,34.1z M27.1,30.1C27.1,30.1,27.1,30.1,27.1,30.1c-2.1,0-3.8-1.7-3.8-3.7s1.7-3.7,3.7-3.7   s3.7,1.7,3.7,3.7C30.8,28.4,29.2,30.1,27.1,30.1z"/>
	<path class="st0" d="M6,0h4.5c3.3,0,6,2.7,6,6v4.5c0,3.3-2.7,6-6,6H6c-3.3,0-6-2.7-6-6V6C0,2.7,2.7,0,6,0z"/>
	<path class="st0" d="M25.5,0H30c3.3,0,6,2.7,6,6v4.5c0,3.3-2.7,6-6,6h-4.5c-3.3,0-6-2.7-6-6V6C19.5,2.7,22.2,0,25.5,0z"/>
	<path class="st0" d="M6,19.5h4.5c3.3,0,6,2.7,6,6V30c0,3.3-2.7,6-6,6H6c-3.3,0-6-2.7-6-6v-4.5C0,22.2,2.7,19.5,6,19.5z"/>
</g>
</svg>